<svg width="1280" height="640" viewBox="0 0 1280 640" xmlns="http://www.w3.org/2000/svg">
<defs>
  <linearGradient id="sky" x1="0" y1="0" x2="0" y2="1">
    <stop offset="0" stop-color="#070C18"/>
    <stop offset="0.6" stop-color="#0A1A2A"/>
    <stop offset="1" stop-color="#0B2738"/>
  </linearGradient>
  <radialGradient id="glow" cx="0.28" cy="0.42" r="0.5">
    <stop offset="0" stop-color="#2DD4BF" stop-opacity="0.20"/>
    <stop offset="1" stop-color="#2DD4BF" stop-opacity="0"/>
  </radialGradient>
</defs>
<rect width="1280" height="640" fill="url(#sky)"/>
<rect width="1280" height="640" fill="url(#glow)"/>
<rect x="180" y="70" width="5" height="5" fill="#9FE9DF" opacity="0.55"/>
<rect x="310" y="48" width="5" height="5" fill="#9FE9DF" opacity="0.55"/>
<rect x="520" y="64" width="5" height="5" fill="#9FE9DF" opacity="0.55"/>
<rect x="690" y="40" width="5" height="5" fill="#9FE9DF" opacity="0.55"/>
<rect x="880" y="70" width="5" height="5" fill="#9FE9DF" opacity="0.55"/>
<rect x="1010" y="52" width="5" height="5" fill="#9FE9DF" opacity="0.55"/>
<rect x="1140" y="90" width="5" height="5" fill="#9FE9DF" opacity="0.55"/>
<rect x="1200" y="200" width="5" height="5" fill="#9FE9DF" opacity="0.55"/>
<rect x="70" y="180" width="5" height="5" fill="#9FE9DF" opacity="0.55"/>
<rect x="430" y="96" width="5" height="5" fill="#9FE9DF" opacity="0.55"/>
<rect x="770" y="100" width="5" height="5" fill="#9FE9DF" opacity="0.55"/>
<rect x="960" y="150" width="5" height="5" fill="#9FE9DF" opacity="0.55"/>
<rect x="1180" y="320" width="5" height="5" fill="#9FE9DF" opacity="0.55"/>
<rect x="60" y="300" width="5" height="5" fill="#9FE9DF" opacity="0.55"/>
<rect x="1230" y="440" width="5" height="5" fill="#9FE9DF" opacity="0.55"/>
<ellipse cx="247" cy="532.4000000000001" rx="150" ry="22" fill="#000000" opacity="0.28"/>
<g>
<rect x="182" y="132" width="26" height="26" fill="#2DD4BF" stroke="#0B3B38" stroke-width="2"/><rect x="184" y="134" width="22" height="7" fill="#5EEAD4" opacity="0.9"/>
<rect x="208" y="132" width="26" height="26" fill="#2DD4BF" stroke="#0B3B38" stroke-width="2"/><rect x="210" y="134" width="22" height="7" fill="#5EEAD4" opacity="0.9"/>
<rect x="234" y="132" width="26" height="26" fill="#2DD4BF" stroke="#0B3B38" stroke-width="2"/><rect x="236" y="134" width="22" height="7" fill="#5EEAD4" opacity="0.9"/>
<rect x="260" y="132" width="26" height="26" fill="#2DD4BF" stroke="#0B3B38" stroke-width="2"/><rect x="262" y="134" width="22" height="7" fill="#5EEAD4" opacity="0.9"/>
<rect x="286" y="132" width="26" height="26" fill="#2DD4BF" stroke="#0B3B38" stroke-width="2"/><rect x="288" y="134" width="22" height="7" fill="#5EEAD4" opacity="0.9"/>
<rect x="156" y="158" width="26" height="26" fill="#2DD4BF" stroke="#0B3B38" stroke-width="2"/><rect x="158" y="160" width="22" height="7" fill="#5EEAD4" opacity="0.9"/>
<rect x="182" y="158" width="26" height="26" fill="#2DD4BF" stroke="#0B3B38" stroke-width="2"/><rect x="184" y="160" width="22" height="7" fill="#5EEAD4" opacity="0.9"/>
<rect x="286" y="158" width="26" height="26" fill="#2DD4BF" stroke="#0B3B38" stroke-width="2"/><rect x="288" y="160" width="22" height="7" fill="#5EEAD4" opacity="0.9"/>
<rect x="312" y="158" width="26" height="26" fill="#2DD4BF" stroke="#0B3B38" stroke-width="2"/><rect x="314" y="160" width="22" height="7" fill="#5EEAD4" opacity="0.9"/>
<rect x="156" y="184" width="26" height="26" fill="#2DD4BF" stroke="#0B3B38" stroke-width="2"/><rect x="158" y="186" width="22" height="7" fill="#5EEAD4" opacity="0.9"/>
<rect x="182" y="184" width="26" height="26" fill="#2DD4BF" stroke="#0B3B38" stroke-width="2"/><rect x="184" y="186" width="22" height="7" fill="#5EEAD4" opacity="0.9"/>
<rect x="286" y="184" width="26" height="26" fill="#2DD4BF" stroke="#0B3B38" stroke-width="2"/><rect x="288" y="186" width="22" height="7" fill="#5EEAD4" opacity="0.9"/>
<rect x="312" y="184" width="26" height="26" fill="#2DD4BF" stroke="#0B3B38" stroke-width="2"/><rect x="314" y="186" width="22" height="7" fill="#5EEAD4" opacity="0.9"/>
<rect x="182" y="210" width="26" height="26" fill="#2DD4BF" stroke="#0B3B38" stroke-width="2"/><rect x="184" y="212" width="22" height="7" fill="#5EEAD4" opacity="0.9"/>
<rect x="208" y="210" width="26" height="26" fill="#2DD4BF" stroke="#0B3B38" stroke-width="2"/><rect x="210" y="212" width="22" height="7" fill="#5EEAD4" opacity="0.9"/>
<rect x="234" y="210" width="26" height="26" fill="#2DD4BF" stroke="#0B3B38" stroke-width="2"/><rect x="236" y="212" width="22" height="7" fill="#5EEAD4" opacity="0.9"/>
<rect x="260" y="210" width="26" height="26" fill="#2DD4BF" stroke="#0B3B38" stroke-width="2"/><rect x="262" y="212" width="22" height="7" fill="#5EEAD4" opacity="0.9"/>
<rect x="286" y="210" width="26" height="26" fill="#2DD4BF" stroke="#0B3B38" stroke-width="2"/><rect x="288" y="212" width="22" height="7" fill="#5EEAD4" opacity="0.9"/>
<rect x="234" y="236" width="26" height="26" fill="#2DD4BF" stroke="#0B3B38" stroke-width="2"/><rect x="236" y="238" width="22" height="7" fill="#5EEAD4" opacity="0.9"/>
<rect x="104" y="262" width="26" height="26" fill="#2DD4BF" stroke="#0B3B38" stroke-width="2"/><rect x="106" y="264" width="22" height="7" fill="#5EEAD4" opacity="0.9"/>
<rect x="130" y="262" width="26" height="26" fill="#2DD4BF" stroke="#0B3B38" stroke-width="2"/><rect x="132" y="264" width="22" height="7" fill="#5EEAD4" opacity="0.9"/>
<rect x="156" y="262" width="26" height="26" fill="#2DD4BF" stroke="#0B3B38" stroke-width="2"/><rect x="158" y="264" width="22" height="7" fill="#5EEAD4" opacity="0.9"/>
<rect x="182" y="262" width="26" height="26" fill="#2DD4BF" stroke="#0B3B38" stroke-width="2"/><rect x="184" y="264" width="22" height="7" fill="#5EEAD4" opacity="0.9"/>
<rect x="208" y="262" width="26" height="26" fill="#2DD4BF" stroke="#0B3B38" stroke-width="2"/><rect x="210" y="264" width="22" height="7" fill="#5EEAD4" opacity="0.9"/>
<rect x="234" y="262" width="26" height="26" fill="#2DD4BF" stroke="#0B3B38" stroke-width="2"/><rect x="236" y="264" width="22" height="7" fill="#5EEAD4" opacity="0.9"/>
<rect x="260" y="262" width="26" height="26" fill="#2DD4BF" stroke="#0B3B38" stroke-width="2"/><rect x="262" y="264" width="22" height="7" fill="#5EEAD4" opacity="0.9"/>
<rect x="286" y="262" width="26" height="26" fill="#2DD4BF" stroke="#0B3B38" stroke-width="2"/><rect x="288" y="264" width="22" height="7" fill="#5EEAD4" opacity="0.9"/>
<rect x="312" y="262" width="26" height="26" fill="#2DD4BF" stroke="#0B3B38" stroke-width="2"/><rect x="314" y="264" width="22" height="7" fill="#5EEAD4" opacity="0.9"/>
<rect x="338" y="262" width="26" height="26" fill="#2DD4BF" stroke="#0B3B38" stroke-width="2"/><rect x="340" y="264" width="22" height="7" fill="#5EEAD4" opacity="0.9"/>
<rect x="364" y="262" width="26" height="26" fill="#2DD4BF" stroke="#0B3B38" stroke-width="2"/><rect x="366" y="264" width="22" height="7" fill="#5EEAD4" opacity="0.9"/>
<rect x="234" y="288" width="26" height="26" fill="#2DD4BF" stroke="#0B3B38" stroke-width="2"/><rect x="236" y="290" width="22" height="7" fill="#5EEAD4" opacity="0.9"/>
<rect x="234" y="314" width="26" height="26" fill="#2DD4BF" stroke="#0B3B38" stroke-width="2"/><rect x="236" y="316" width="22" height="7" fill="#5EEAD4" opacity="0.9"/>
<rect x="104" y="340" width="26" height="26" fill="#2DD4BF" stroke="#0B3B38" stroke-width="2"/><rect x="106" y="342" width="22" height="7" fill="#5EEAD4" opacity="0.9"/>
<rect x="234" y="340" width="26" height="26" fill="#2DD4BF" stroke="#0B3B38" stroke-width="2"/><rect x="236" y="342" width="22" height="7" fill="#5EEAD4" opacity="0.9"/>
<rect x="364" y="340" width="26" height="26" fill="#2DD4BF" stroke="#0B3B38" stroke-width="2"/><rect x="366" y="342" width="22" height="7" fill="#5EEAD4" opacity="0.9"/>
<rect x="104" y="366" width="26" height="26" fill="#2DD4BF" stroke="#0B3B38" stroke-width="2"/><rect x="106" y="368" width="22" height="7" fill="#5EEAD4" opacity="0.9"/>
<rect x="234" y="366" width="26" height="26" fill="#2DD4BF" stroke="#0B3B38" stroke-width="2"/><rect x="236" y="368" width="22" height="7" fill="#5EEAD4" opacity="0.9"/>
<rect x="364" y="366" width="26" height="26" fill="#2DD4BF" stroke="#0B3B38" stroke-width="2"/><rect x="366" y="368" width="22" height="7" fill="#5EEAD4" opacity="0.9"/>
<rect x="104" y="392" width="26" height="26" fill="#2DD4BF" stroke="#0B3B38" stroke-width="2"/><rect x="106" y="394" width="22" height="7" fill="#5EEAD4" opacity="0.9"/>
<rect x="234" y="392" width="26" height="26" fill="#2DD4BF" stroke="#0B3B38" stroke-width="2"/><rect x="236" y="394" width="22" height="7" fill="#5EEAD4" opacity="0.9"/>
<rect x="364" y="392" width="26" height="26" fill="#2DD4BF" stroke="#0B3B38" stroke-width="2"/><rect x="366" y="394" width="22" height="7" fill="#5EEAD4" opacity="0.9"/>
<rect x="104" y="418" width="26" height="26" fill="#2DD4BF" stroke="#0B3B38" stroke-width="2"/><rect x="106" y="420" width="22" height="7" fill="#5EEAD4" opacity="0.9"/>
<rect x="130" y="418" width="26" height="26" fill="#2DD4BF" stroke="#0B3B38" stroke-width="2"/><rect x="132" y="420" width="22" height="7" fill="#5EEAD4" opacity="0.9"/>
<rect x="234" y="418" width="26" height="26" fill="#2DD4BF" stroke="#0B3B38" stroke-width="2"/><rect x="236" y="420" width="22" height="7" fill="#5EEAD4" opacity="0.9"/>
<rect x="338" y="418" width="26" height="26" fill="#2DD4BF" stroke="#0B3B38" stroke-width="2"/><rect x="340" y="420" width="22" height="7" fill="#5EEAD4" opacity="0.9"/>
<rect x="364" y="418" width="26" height="26" fill="#2DD4BF" stroke="#0B3B38" stroke-width="2"/><rect x="366" y="420" width="22" height="7" fill="#5EEAD4" opacity="0.9"/>
<rect x="130" y="444" width="26" height="26" fill="#2DD4BF" stroke="#0B3B38" stroke-width="2"/><rect x="132" y="446" width="22" height="7" fill="#5EEAD4" opacity="0.9"/>
<rect x="156" y="444" width="26" height="26" fill="#2DD4BF" stroke="#0B3B38" stroke-width="2"/><rect x="158" y="446" width="22" height="7" fill="#5EEAD4" opacity="0.9"/>
<rect x="234" y="444" width="26" height="26" fill="#2DD4BF" stroke="#0B3B38" stroke-width="2"/><rect x="236" y="446" width="22" height="7" fill="#5EEAD4" opacity="0.9"/>
<rect x="312" y="444" width="26" height="26" fill="#2DD4BF" stroke="#0B3B38" stroke-width="2"/><rect x="314" y="446" width="22" height="7" fill="#5EEAD4" opacity="0.9"/>
<rect x="338" y="444" width="26" height="26" fill="#2DD4BF" stroke="#0B3B38" stroke-width="2"/><rect x="340" y="446" width="22" height="7" fill="#5EEAD4" opacity="0.9"/>
<rect x="156" y="470" width="26" height="26" fill="#2DD4BF" stroke="#0B3B38" stroke-width="2"/><rect x="158" y="472" width="22" height="7" fill="#5EEAD4" opacity="0.9"/>
<rect x="182" y="470" width="26" height="26" fill="#2DD4BF" stroke="#0B3B38" stroke-width="2"/><rect x="184" y="472" width="22" height="7" fill="#5EEAD4" opacity="0.9"/>
<rect x="208" y="470" width="26" height="26" fill="#2DD4BF" stroke="#0B3B38" stroke-width="2"/><rect x="210" y="472" width="22" height="7" fill="#5EEAD4" opacity="0.9"/>
<rect x="234" y="470" width="26" height="26" fill="#2DD4BF" stroke="#0B3B38" stroke-width="2"/><rect x="236" y="472" width="22" height="7" fill="#5EEAD4" opacity="0.9"/>
<rect x="260" y="470" width="26" height="26" fill="#2DD4BF" stroke="#0B3B38" stroke-width="2"/><rect x="262" y="472" width="22" height="7" fill="#5EEAD4" opacity="0.9"/>
<rect x="286" y="470" width="26" height="26" fill="#2DD4BF" stroke="#0B3B38" stroke-width="2"/><rect x="288" y="472" width="22" height="7" fill="#5EEAD4" opacity="0.9"/>
<rect x="312" y="470" width="26" height="26" fill="#2DD4BF" stroke="#0B3B38" stroke-width="2"/><rect x="314" y="472" width="22" height="7" fill="#5EEAD4" opacity="0.9"/>
<rect x="182" y="496" width="26" height="26" fill="#2DD4BF" stroke="#0B3B38" stroke-width="2"/><rect x="184" y="498" width="22" height="7" fill="#5EEAD4" opacity="0.9"/>
<rect x="234" y="496" width="26" height="26" fill="#2DD4BF" stroke="#0B3B38" stroke-width="2"/><rect x="236" y="498" width="22" height="7" fill="#5EEAD4" opacity="0.9"/>
<rect x="286" y="496" width="26" height="26" fill="#2DD4BF" stroke="#0B3B38" stroke-width="2"/><rect x="288" y="498" width="22" height="7" fill="#5EEAD4" opacity="0.9"/>
</g>
<text x="476" y="238" font-family="'DejaVu Sans Mono','Menlo',monospace" font-size="88" font-weight="700" letter-spacing="1" text-anchor="start" fill="#0E7C71">anchored</text><text x="470" y="232" font-family="'DejaVu Sans Mono','Menlo',monospace" font-size="88" font-weight="700" letter-spacing="1" text-anchor="start" fill="#2DD4BF">anchored</text>
<text x="473" y="335" font-family="'DejaVu Sans Mono','Menlo',monospace" font-size="46" font-weight="700" letter-spacing="1" text-anchor="start" fill="#06121F">Long autonomous AI</text><text x="470" y="332" font-family="'DejaVu Sans Mono','Menlo',monospace" font-size="46" font-weight="700" letter-spacing="1" text-anchor="start" fill="#F5FAF9">Long autonomous AI</text>
<text x="473" y="391" font-family="'DejaVu Sans Mono','Menlo',monospace" font-size="46" font-weight="700" letter-spacing="1" text-anchor="start" fill="#06121F">coding runs you can</text><text x="470" y="388" font-family="'DejaVu Sans Mono','Menlo',monospace" font-size="46" font-weight="700" letter-spacing="1" text-anchor="start" fill="#F5FAF9">coding runs you can</text>
<text x="473" y="447" font-family="'DejaVu Sans Mono','Menlo',monospace" font-size="46" font-weight="700" letter-spacing="1" text-anchor="start" fill="#0E7C71">actually trust.</text><text x="470" y="444" font-family="'DejaVu Sans Mono','Menlo',monospace" font-size="46" font-weight="700" letter-spacing="1" text-anchor="start" fill="#2DD4BF">actually trust.</text>
<text x="473" y="495" font-family="'DejaVu Sans Mono',monospace" font-size="22" fill="#06121F">Every claim has proof. Every step configurable.</text><text x="470" y="492" font-family="'DejaVu Sans Mono',monospace" font-size="22" fill="#8FA3B0">Every claim has proof. Every step configurable.</text>
<rect x="470" y="536" width="70" height="70" fill="#5BA83E" stroke="#2E5E1E" stroke-width="3"/>
<rect x="473" y="539" width="64" height="16" fill="#86D45F"/>
<rect x="484" y="566" width="9" height="9" fill="#4A8E32"/>
<rect x="516" y="560" width="9" height="9" fill="#4A8E32"/>
<rect x="500" y="584" width="9" height="9" fill="#4A8E32"/>
<rect x="522" y="586" width="9" height="9" fill="#4A8E32"/>
<rect x="488" y="590" width="9" height="9" fill="#4A8E32"/>
<text x="508" y="639" font-family="'DejaVu Sans Mono','Menlo',monospace" font-size="22" font-weight="700" letter-spacing="1" text-anchor="middle" fill="#06121F">/plan</text><text x="505" y="636" font-family="'DejaVu Sans Mono','Menlo',monospace" font-size="22" font-weight="700" letter-spacing="1" text-anchor="middle" fill="#F5FAF9">/plan</text>
<rect x="578" y="536" width="70" height="70" fill="#8C6239" stroke="#4E3620" stroke-width="3"/>
<rect x="581" y="539" width="64" height="16" fill="#B5854F"/>
<rect x="592" y="566" width="9" height="9" fill="#6E4B2B"/>
<rect x="624" y="560" width="9" height="9" fill="#6E4B2B"/>
<rect x="608" y="584" width="9" height="9" fill="#6E4B2B"/>
<rect x="630" y="586" width="9" height="9" fill="#6E4B2B"/>
<rect x="596" y="590" width="9" height="9" fill="#6E4B2B"/>
<text x="616" y="639" font-family="'DejaVu Sans Mono','Menlo',monospace" font-size="22" font-weight="700" letter-spacing="1" text-anchor="middle" fill="#06121F">/refine</text><text x="613" y="636" font-family="'DejaVu Sans Mono','Menlo',monospace" font-size="22" font-weight="700" letter-spacing="1" text-anchor="middle" fill="#F5FAF9">/refine</text>
<rect x="686" y="536" width="70" height="70" fill="#8A929B" stroke="#4C5258" stroke-width="3"/>
<rect x="689" y="539" width="64" height="16" fill="#B9C1C8"/>
<rect x="700" y="566" width="9" height="9" fill="#717981"/>
<rect x="732" y="560" width="9" height="9" fill="#717981"/>
<rect x="716" y="584" width="9" height="9" fill="#717981"/>
<rect x="738" y="586" width="9" height="9" fill="#717981"/>
<rect x="704" y="590" width="9" height="9" fill="#717981"/>
<text x="724" y="639" font-family="'DejaVu Sans Mono','Menlo',monospace" font-size="22" font-weight="700" letter-spacing="1" text-anchor="middle" fill="#06121F">/build</text><text x="721" y="636" font-family="'DejaVu Sans Mono','Menlo',monospace" font-size="22" font-weight="700" letter-spacing="1" text-anchor="middle" fill="#F5FAF9">/build</text>
<rect x="794" y="536" width="70" height="70" fill="#E0B53B" stroke="#8A6A14" stroke-width="3"/>
<rect x="797" y="539" width="64" height="16" fill="#F6D766"/>
<rect x="808" y="566" width="9" height="9" fill="#C49A2C"/>
<rect x="840" y="560" width="9" height="9" fill="#C49A2C"/>
<rect x="824" y="584" width="9" height="9" fill="#C49A2C"/>
<rect x="846" y="586" width="9" height="9" fill="#C49A2C"/>
<rect x="812" y="590" width="9" height="9" fill="#C49A2C"/>
<text x="832" y="639" font-family="'DejaVu Sans Mono','Menlo',monospace" font-size="22" font-weight="700" letter-spacing="1" text-anchor="middle" fill="#06121F">/wrap</text><text x="829" y="636" font-family="'DejaVu Sans Mono','Menlo',monospace" font-size="22" font-weight="700" letter-spacing="1" text-anchor="middle" fill="#F5FAF9">/wrap</text>
<text x="1243" y="615" font-family="'DejaVu Sans Mono','Menlo',monospace" font-size="22" font-weight="700" letter-spacing="1" text-anchor="end" fill="#06121F">// Claude Code plugin</text><text x="1240" y="612" font-family="'DejaVu Sans Mono','Menlo',monospace" font-size="22" font-weight="700" letter-spacing="1" text-anchor="end" fill="#5EEAD4">// Claude Code plugin</text>
</svg>